<?xml version="1.0" encoding="utf-8"?>
<!-- Generator: Adobe Illustrator 23.0.1, SVG Export Plug-In . SVG Version: 6.00 Build 0)  -->
<svg version="1.1" id="Слой_1" xmlns="http://www.w3.org/2000/svg" xmlns:xlink="http://www.w3.org/1999/xlink" x="0px" y="0px"
	 viewBox="0 0 360 65" style="enable-background:new 0 0 360 65;" xml:space="preserve">
<style type="text/css">
	.st0{fill:#FFFFFF;}
	.st1{fill:#FF8E1D;}
</style>
<g transform="translate(0.000000,806.000000) scale(0.100000,-0.100000)">
	<path class="st0" d="M260.5,8041.6c-6.6-2.4-12.3-10-12.3-16.4c0-0.9,1.9-3.7,4.1-6.3c6.7-7.3,4.9-9.3-9.8-11
		c-3.8-0.4-7.7-0.9-8.7-1.1c-1.9-0.4-5.4-5.7-6.3-9.3c-0.3-1.4-2.4-3.2-6.3-5.7c-17.8-11.1-34-33.5-48.7-67
		c-4.8-11-9.2-18.3-16.5-27.2c-5.6-7-18.8-20.2-26.5-26.8c-18.4-15.8-24.9-22.4-26-27c-1.8-8.1,4.1-9.1,38.7-6.6
		c21.6,1.5,27.2,1.2,30.5-1.9c2.8-2.7,3-6.7,0.6-10.8c-1.5-2.4-10.9-15-12.1-16.2c-2.9-2.9-12.7-17.7-17.8-27.2
		c-4.7-8.6-11.5-25.5-11.5-28.8c0-6.2,5.6-7.8,21.7-6.3c11.8,1,12.4,0.7,12.4-5.1c0-4.5-4.2-19.2-6.7-23.8
		c-2.1-3.8-5.4-5.9-11.2-7.1c-19.7-4-28-11.1-38.1-33.1c-2.8-6.1-6.2-12.4-7.4-14.1c-3.5-4.5-8-13.3-9.3-18.4
		c-0.6-2.5-1.2-7.4-1.2-10.9c0-5.4-0.5-7.7-3.3-15.5c-6.1-16.6-11-23.3-15.1-20.5c-2.4,1.7-2.8,5.5-1.7,16.3
		c1.9,18.4,0.9,24.9-4.2,27.5c-11.2,5.8-32.8,5-45.2-1.5c-4.1-2.2-4.8-3-5.8-6.2c-1.8-5.8-1.6-27.3,0.2-34.5
		c4.8-18,14.8-32.7,26.4-38.5c3.4-1.7,12.6-4.1,15.8-4.1c8.4,0,21,5.6,28.9,12.8c9.9,8.9,16.2,20.1,24.1,42.9
		c1.7,5,4.2,10.6,5.7,12.6c5.4,7.7,7.3,13.4,8.1,24.4c0.8,11.3,5.4,22.1,14.7,34.8c5.6,7.5,9.7,10.3,15.1,10.3
		c3.7,0,4.2-0.3,6.7-3.1c4.2-4.9,5-11,3.3-25.6c-1.6-14.3-1.6-17.5-0.1-22.7c2.5-8.4,9.8-12.4,22.7-12.4c4.1,0,13.9,0.7,21.7,1.7
		c23.8,2.8,30.3,1.2,35.5-8.8c1.4-2.7,3.3-13.9,3.3-19.1c0-4-0.6-5.8-3.8-11.9c-3.3-6.4-3.8-8-4.1-13.6c-0.2-3.6,0.1-8.4,0.6-10.7
		c0.8-4,0.7-4.5-1.6-9.3c-3.9-7.7-12.3-20-30.4-44c-29.5-39.4-36.5-51.7-36.5-63.4c0.1-8.4,4.3-15.7,11.3-19.3
		c4.4-2.3,16.9-2.4,25.1-0.2c17,4.5,41.3,15.8,60.8,28.3c16.7,10.8,39.1,26.5,41.2,29c2.4,2.7,12,9.7,15.8,11.4
		c19.2,8.8,57.1,11.8,86.5,6.9c22.6-3.7,49.9-1.2,67.2,6.2c5.3,2.3,7.2,4.4,8.9,9.3c2.4,7.6-0.3,18.5-10.3,40.5
		c-4.5,10-8.1,19.2-8.9,22.3c-0.4,2-1,7.9-1.2,13c-0.7,14.1-3,21.5-8.7,27.5c-4.9,5.2-16,23.6-24.3,40.1
		c-9.9,19.9-10.6,20.9-19.9,25.6c-8.4,4.2-10.2,6.7-10.2,14.5c0,5.6,1.4,8,14.1,23.7c6.1,7.6,9.9,13.2,12,17.8
		c2.3,4.9,3.9,7.1,5.8,8.3c5.4,3.2,12.7,1.6,25-5.7c10.6-6.3,20.1-10.6,26.6-12c5.4-1.1,6-1.1,7.9,0.2c1.6,1.1,2.1,2,2.1,4.2
		c0,3.1-3.2,10.3-7.3,16.2c-4.1,5.8-11.1,19.8-14.1,28c-7.2,19.3-9.9,36.5-10.7,68.1c-1,43.2-4.2,64.3-12.6,82
		c-7.5,15.8-21.8,33.1-32.8,39.5c-5.8,3.5-6.3,4.6-4.1,10.7c0.9,2.6,1,3.7,0.1,5.6c-1.8,4.2-11.2,10.9-22.7,16.1
		c-18,8.2-30.3,11.3-49.2,12.3c-12.3,0.6-17.9,2.1-39.9,10.5C278.8,8042.4,268.5,8044.6,260.5,8041.6z"/>
</g>
<g>
	<path class="st0" d="M71.2,23c0-3.1,0.7-5.3,2.1-7c1.4-1.6,3.6-2.5,6.5-2.5s5.1,0.8,6.5,2.5c1.4,1.6,2.1,4,2.1,7v1.4h-5.6v-1.8
		c0-1.4-0.3-2.3-0.8-2.9c-0.5-0.5-1.3-0.8-2.1-0.8c-0.8,0-1.6,0.3-2.2,0.8s-0.7,1.6-0.7,3c0,1.3,0.3,2.5,0.8,3.4
		c0.6,1,1.3,1.9,2.1,2.8c0.8,0.8,1.8,1.8,2.8,2.6c0.9,0.8,1.9,1.8,2.8,2.9c0.9,1.1,1.6,2.2,2.1,3.6c0.5,1.4,0.8,2.9,0.8,4.7
		c0,3.1-0.8,5.3-2.2,7c-1.4,1.6-3.6,2.5-6.5,2.5s-5.1-0.8-6.5-2.5c-1.4-1.6-2.3-4.1-2.3-7.1v-2.5h5.6v3c0,1.4,0.3,2.3,0.8,2.8
		s1.3,0.8,2.2,0.8s1.7-0.3,2.2-0.8s0.8-1.4,0.8-2.8c0-1.3-0.3-2.4-0.8-3.4c-0.6-1-1.3-1.9-2.1-2.8c-0.8-0.8-1.8-1.8-2.8-2.6
		s-1.9-1.8-2.8-2.9s-1.5-2.2-2.1-3.6C71.4,26.3,71.2,24.8,71.2,23z"/>
	<path class="st0" d="M97.5,51.4h-5.8V14h5.8v16h6.7V14h6v37.4h-6v-16h-6.7V51.4z"/>
	<path class="st0" d="M120,29.8h8.1v5.3H120V46h10.2v5.3h-16V14h16v5.3H120C120,19.4,120,29.8,120,29.8z"/>
	<path class="st0" d="M145.9,51.4c-0.1-0.3-0.2-0.5-0.3-0.7s-0.2-0.5-0.2-0.8s-0.1-0.8-0.1-1.3s0-1.1,0-1.9v-5.8
		c0-1.8-0.3-3-0.9-3.6c-0.6-0.7-1.6-1.1-3-1.1h-2v15.3h-5.8V14h8.9c3.1,0,5.3,0.7,6.6,2.1s2,3.6,2,6.4v3c0,3.8-1.3,6.4-3.8,7.5
		c1.5,0.6,2.5,1.6,3.1,3c0.5,1.4,0.8,3.1,0.8,5v5.8c0,0.9,0,1.7,0.1,2.5c0.1,0.7,0.3,1.4,0.5,2.1L145.9,51.4L145.9,51.4z
		 M139.4,19.4v11.4h2.3c1.1,0,1.9-0.3,2.6-0.8c0.6-0.6,0.9-1.6,0.9-3.1v-3.7c0-1.4-0.3-2.4-0.7-3c-0.5-0.6-1.3-0.9-2.3-0.9
		L139.4,19.4L139.4,19.4z"/>
	<path class="st0" d="M154.8,14h5.8v32h9.7v5.3h-15.5V14z"/>
	<path class="st0" d="M172.2,23c0-3.1,0.8-5.3,2.3-7s3.7-2.5,6.6-2.5s5.1,0.8,6.6,2.5c1.5,1.6,2.3,4,2.3,7v19.4c0,3.1-0.8,5.3-2.3,7
		c-1.5,1.6-3.7,2.5-6.6,2.5s-5.1-0.8-6.6-2.5s-2.3-4-2.3-7V23z M178.1,42.8c0,1.4,0.3,2.3,0.8,2.9c0.5,0.6,1.3,0.8,2.2,0.8
		s1.7-0.3,2.2-0.8c0.5-0.6,0.8-1.5,0.8-2.9V22.6c0-1.4-0.3-2.3-0.8-2.9c-0.5-0.5-1.3-0.8-2.2-0.8s-1.7,0.3-2.2,0.8s-0.8,1.5-0.8,2.9
		V42.8z"/>
	<path class="st0" d="M210.6,37.5v5c0,3.1-0.8,5.3-2.2,7c-1.4,1.6-3.6,2.5-6.5,2.5s-5.1-0.8-6.5-2.5s-2.2-4-2.2-7V23
		c0-3.1,0.8-5.3,2.2-7c1.4-1.6,3.6-2.5,6.5-2.5s5.1,0.8,6.5,2.5c1.4,1.6,2.2,4,2.2,7v3.6H205v-4c0-1.4-0.3-2.3-0.8-2.9
		s-1.3-0.8-2.2-0.8s-1.7,0.3-2.2,0.8s-0.8,1.5-0.8,2.9v20.2c0,1.4,0.3,2.3,0.8,2.8s1.3,0.8,2.2,0.8s1.7-0.3,2.2-0.8s0.8-1.4,0.8-2.8
		v-5.3L210.6,37.5L210.6,37.5z"/>
	<path class="st0" d="M221.6,36.5l-1.8,3.4v11.5H214V14h5.8v16.3l7.8-16.3h5.8l-8.1,16.7l8.1,20.8h-6L221.6,36.5z"/>
	<path class="st1" d="M244.4,14c3,0,5.2,0.8,6.6,2.4c1.4,1.6,2.2,3.9,2.2,6.9v4.8c0,3.1-0.8,5.3-2.2,6.9s-3.6,2.4-6.6,2.4h-2.8v14.1
		h-5.8V14H244.4z M241.6,19.4V32h2.8c0.9,0,1.6-0.3,2.1-0.8s0.8-1.4,0.8-2.8v-5.6c0-1.4-0.3-2.3-0.8-2.8s-1.2-0.8-2.1-0.8
		L241.6,19.4L241.6,19.4z"/>
	<path class="st1" d="M261.6,51.4h-5.8V14h5.8v16h6.7V14h6v37.4h-6v-16h-6.7V51.4z"/>
	<path class="st1" d="M277.7,23c0-3.1,0.8-5.3,2.3-7c1.5-1.6,3.7-2.5,6.6-2.5s5.1,0.8,6.6,2.5s2.3,4,2.3,7v19.4c0,3.1-0.8,5.3-2.3,7
		s-3.7,2.5-6.6,2.5s-5.1-0.8-6.6-2.5c-1.5-1.6-2.3-4-2.3-7V23L277.7,23z M283.6,42.8c0,1.4,0.3,2.3,0.8,2.9c0.6,0.6,1.3,0.8,2.2,0.8
		s1.7-0.3,2.2-0.8c0.5-0.6,0.8-1.5,0.8-2.9V22.6c0-1.4-0.3-2.3-0.8-2.9c-0.5-0.5-1.3-0.8-2.2-0.8s-1.7,0.3-2.2,0.8s-0.8,1.5-0.8,2.9
		V42.8z"/>
	<path class="st1" d="M304.4,24.4v27.1H299V14h7.4l6,22.4V14h5.3v37.4h-6L304.4,24.4z"/>
	<path class="st1" d="M327.5,29.8h8.1v5.3h-8.1V46h10.2v5.3h-16V14h16v5.3h-10.2V29.8z"/>
	<path class="st1" d="M340.3,23c0-3.1,0.8-5.3,2.1-7c1.4-1.6,3.6-2.5,6.5-2.5s5.1,0.8,6.5,2.5s2.1,4,2.1,7v1.4H352v-1.8
		c0-1.4-0.3-2.3-0.8-2.9c-0.5-0.5-1.3-0.8-2.1-0.8c-0.8,0-1.6,0.3-2.1,0.8c-0.5,0.6-0.8,1.5-0.8,2.9c0,1.3,0.3,2.5,0.8,3.4
		c0.6,1,1.3,1.9,2.1,2.8c0.8,0.8,1.8,1.8,2.8,2.6s1.9,1.8,2.8,2.9s1.6,2.2,2.1,3.6c0.6,1.3,0.8,2.9,0.8,4.7c0,3.1-0.8,5.3-2.2,7
		c-1.4,1.6-3.6,2.5-6.5,2.5s-5.1-0.8-6.5-2.5c-1.4-1.6-2.2-4-2.2-7V40h5.5v3c0,1.4,0.3,2.3,0.8,2.8s1.3,0.8,2.2,0.8s1.7-0.3,2.2-0.8
		s0.8-1.4,0.8-2.8c0-1.3-0.3-2.4-0.8-3.4s-1.3-1.9-2.1-2.8C348,36,347,35,346,34.2s-1.9-1.8-2.8-2.9s-1.6-2.2-2.1-3.6
		C340.6,26.3,340.3,24.8,340.3,23z"/>
</g>
</svg>
