<?xml version="1.0" encoding="utf-8"?>
<!-- Generator: Adobe Illustrator 23.0.1, SVG Export Plug-In . SVG Version: 6.00 Build 0)  -->
<svg version="1.1" id="Слой_1" xmlns="http://www.w3.org/2000/svg" xmlns:xlink="http://www.w3.org/1999/xlink" x="0px" y="0px"
	 viewBox="0 0 350 64" style="enable-background:new 0 0 350 64;" xml:space="preserve">
<style type="text/css">
	.st0{fill:#FFFFFF;}
	.st1{fill:#FF8E1D;}
</style>
<g>
	<path class="st0" d="M6.2,20.7c0-3.6,0.8-6.3,2.5-8.2s4.3-2.9,7.7-2.9c3.4,0,6,1,7.7,2.9s2.5,4.7,2.5,8.2v1.7H20v-2.1
		c0-1.6-0.3-2.7-0.9-3.4c-0.6-0.6-1.5-1-2.5-1s-1.9,0.3-2.6,1s-0.9,1.8-0.9,3.4c0,1.5,0.3,2.9,1,4c0.7,1.2,1.5,2.3,2.5,3.3
		s2.1,2.1,3.3,3.1c1.1,1,2.2,2.1,3.3,3.4s1.9,2.6,2.5,4.2s1,3.4,1,5.5c0,3.6-0.9,6.3-2.6,8.2c-1.7,1.9-4.3,2.9-7.7,2.9s-6-1-7.7-2.9
		S6,47.2,6,43.6v-3h6.6v3.5c0,1.6,0.3,2.7,1,3.3c0.6,0.6,1.5,1,2.6,1c1.1,0,2-0.3,2.6-1c0.6-0.6,1-1.7,1-3.3c0-1.5-0.3-2.8-1-4
		c-0.7-1.2-1.5-2.3-2.5-3.3s-2.1-2.1-3.3-3.1s-2.2-2.1-3.3-3.4s-1.8-2.6-2.5-4.2C6.5,24.6,6.2,22.8,6.2,20.7z"/>
	<path class="st0" d="M37.3,54.2h-6.9V10.1h6.9V29h7.9V10.1h7.1v44.1h-7.1V35.3h-7.9V54.2z"/>
	<path class="st0" d="M63.8,28.7h9.5V35h-9.5v12.9h12v6.3H56.9V10.1h18.9v6.3h-12V28.7z"/>
	<path class="st0" d="M94.3,54.2c-0.1-0.3-0.2-0.6-0.3-0.8s-0.2-0.6-0.2-1s-0.1-0.9-0.1-1.5s0-1.3,0-2.2v-6.9c0-2.1-0.4-3.5-1.1-4.3
		s-1.9-1.3-3.5-1.3h-2.4v18h-6.9V10.1h10.5c3.6,0,6.2,0.8,7.8,2.5c1.6,1.7,2.4,4.2,2.4,7.6v3.5c0,4.5-1.5,7.5-4.5,8.9
		c1.8,0.7,3,1.9,3.6,3.5s1,3.6,1,5.9v6.8c0,1.1,0,2,0.1,2.9c0.1,0.8,0.3,1.7,0.6,2.5L94.3,54.2L94.3,54.2z M86.7,16.4v13.5h2.7
		c1.3,0,2.3-0.3,3.1-1c0.7-0.7,1.1-1.9,1.1-3.7v-4.4c0-1.6-0.3-2.8-0.8-3.5c-0.6-0.7-1.5-1.1-2.7-1.1L86.7,16.4L86.7,16.4z"/>
	<path class="st0" d="M104.8,10.1h6.9v37.8h11.4v6.3h-18.3V10.1z"/>
	<path class="st0" d="M125.4,20.7c0-3.6,0.9-6.3,2.7-8.2c1.8-1.9,4.4-2.9,7.8-2.9s6,1,7.8,2.9c1.8,1.9,2.7,4.7,2.7,8.2v22.9
		c0,3.6-0.9,6.3-2.7,8.2c-1.8,1.9-4.4,2.9-7.8,2.9s-6-1-7.8-2.9c-1.8-1.9-2.7-4.7-2.7-8.2C125.4,43.6,125.4,20.7,125.4,20.7z
		 M132.3,44.1c0,1.6,0.3,2.7,1,3.4c0.6,0.7,1.5,1,2.6,1c1.1,0,2-0.3,2.6-1c0.6-0.7,1-1.8,1-3.4V20.2c0-1.6-0.3-2.7-1-3.4
		c-0.6-0.6-1.5-1-2.6-1c-1.1,0-2,0.3-2.6,1c-0.6,0.6-1,1.8-1,3.4V44.1z"/>
	<path class="st0" d="M170.7,37.8v5.9c0,3.6-0.9,6.3-2.6,8.2c-1.7,1.9-4.3,2.9-7.7,2.9s-6-1-7.7-2.9s-2.6-4.7-2.6-8.2V20.7
		c0-3.6,0.9-6.3,2.6-8.2c1.7-1.9,4.3-2.9,7.7-2.9s6,1,7.7,2.9s2.6,4.7,2.6,8.2V25h-6.6v-4.7c0-1.6-0.3-2.7-1-3.4s-1.5-1-2.6-1
		c-1.1,0-2,0.3-2.6,1c-0.6,0.6-1,1.8-1,3.4v23.8c0,1.6,0.3,2.7,1,3.3c0.6,0.6,1.5,1,2.6,1c1.1,0,2-0.3,2.6-1c0.6-0.6,1-1.7,1-3.3
		v-6.3L170.7,37.8L170.7,37.8z"/>
	<path class="st0" d="M183.7,36.6l-2.1,4v13.6h-6.9V10.1h6.9v19.2l9.2-19.2h6.8l-9.6,19.7l9.6,24.5h-7.1L183.7,36.6z"/>
	<path class="st1" d="M210.6,10.1c3.5,0,6.1,0.9,7.8,2.8s2.6,4.6,2.6,8.1v5.7c0,3.6-0.9,6.3-2.6,8.1s-4.3,2.8-7.8,2.8h-3.3v16.6
		h-6.9V10.1H210.6z M207.3,16.4v14.9h3.3c1.1,0,1.9-0.3,2.5-0.9c0.6-0.6,0.9-1.7,0.9-3.3v-6.6c0-1.6-0.3-2.7-0.9-3.3
		c-0.6-0.6-1.4-0.9-2.5-0.9H207.3z"/>
	<path class="st1" d="M230.8,54.2h-6.9V10.1h6.9V29h7.9V10.1h7.1v44.1h-7.1V35.3h-7.9V54.2z"/>
	<path class="st1" d="M249.9,20.7c0-3.6,0.9-6.3,2.7-8.2c1.8-1.9,4.4-2.9,7.8-2.9s6,1,7.8,2.9c1.8,1.9,2.7,4.7,2.7,8.2v22.9
		c0,3.6-0.9,6.3-2.7,8.2s-4.4,2.9-7.8,2.9s-6-1-7.8-2.9c-1.8-1.9-2.7-4.7-2.7-8.2L249.9,20.7L249.9,20.7z M256.8,44.1
		c0,1.6,0.3,2.7,1,3.4s1.5,1,2.6,1c1.1,0,2-0.3,2.6-1s1-1.8,1-3.4V20.2c0-1.6-0.3-2.7-1-3.4c-0.6-0.6-1.5-1-2.6-1
		c-1.1,0-2,0.3-2.6,1c-0.6,0.6-1,1.8-1,3.4V44.1z"/>
	<path class="st1" d="M281.3,22.3v32H275V10.1h8.7l7.1,26.4V10.1h6.2v44.1h-7.1L281.3,22.3z"/>
	<path class="st1" d="M308.6,28.7h9.5V35h-9.5v12.9h12v6.3h-18.9V10.1h18.9v6.3h-12V28.7z"/>
	<path class="st1" d="M323.7,20.7c0-3.6,0.9-6.3,2.5-8.2c1.7-1.9,4.3-2.9,7.7-2.9c3.4,0,6,1,7.7,2.9s2.5,4.7,2.5,8.2v1.7h-6.5v-2.1
		c0-1.6-0.3-2.7-0.9-3.4c-0.6-0.6-1.5-1-2.5-1s-1.9,0.3-2.5,1s-0.9,1.8-0.9,3.4c0,1.5,0.3,2.9,1,4c0.7,1.2,1.5,2.3,2.5,3.3
		c1,1,2.1,2.1,3.3,3.1s2.2,2.1,3.3,3.4s1.9,2.6,2.5,4.2c0.7,1.5,1,3.4,1,5.5c0,3.6-0.9,6.3-2.6,8.2c-1.7,1.9-4.3,2.9-7.7,2.9
		s-6-1-7.7-2.9s-2.6-4.7-2.6-8.2v-3h6.5v3.5c0,1.6,0.3,2.7,1,3.3c0.6,0.6,1.5,1,2.6,1c1.1,0,2-0.3,2.6-1c0.6-0.6,1-1.7,1-3.3
		c0-1.5-0.3-2.8-1-4c-0.7-1.2-1.5-2.3-2.5-3.3c-1-1-2.1-2.1-3.3-3.1s-2.2-2.1-3.3-3.4s-1.9-2.6-2.5-4.2
		C324,24.6,323.7,22.8,323.7,20.7z"/>
</g>
</svg>
